<svg width="233" height="48" viewBox="0 0 233 48" fill="none" xmlns="http://www.w3.org/2000/svg">
<rect x="0.5" y="0.5" width="232" height="47.5" fill="white"/>
<g clip-path="url(#clip0_702_226)">
<path d="M52.6704 15.0053V15.8293H60.4452C61.0966 15.7627 61.7505 15.934 62.2631 16.3056C62.4653 16.5354 62.6157 16.7993 62.7056 17.0821C62.7955 17.3649 62.8231 17.661 62.787 17.9535V25.0217C62.8231 25.3142 62.7955 25.6103 62.7056 25.8931C62.6157 26.1759 62.4653 26.4398 62.2631 26.6696C61.7505 27.0412 61.0966 27.2125 60.4452 27.1459H56.6888C56.0391 27.1459 55.1956 27.1459 54.8708 26.4982C54.546 25.8504 55.0018 25.2598 55.3947 24.7883L60.4504 18.6632H52.6704L49.5584 22.4307C49.0345 23.0594 48.584 23.6071 48.584 24.312C48.584 25.0169 49.0031 25.5313 49.5584 26.2172L50.3338 27.1697C51.1144 28.1223 51.9055 29.0749 52.9271 29.5274C53.9488 29.9799 55.1956 30.0037 56.8826 30.0037H60.2513C62.195 30.0037 65.1131 30.0037 67.0621 28.2366C69.011 26.4696 69.0057 23.8738 69.0057 22.9355V20.073C69.0057 19.1204 69.0057 16.5342 67.0621 14.7671C65.1184 13.0001 62.195 13.0001 60.2513 13.0001H54.8708C54.5695 12.9681 54.2641 12.994 53.9744 13.0761C53.6847 13.1581 53.4172 13.2945 53.1891 13.4764C52.9889 13.6846 52.8388 13.9287 52.7486 14.1928C52.6583 14.4569 52.6299 14.7353 52.6652 15.0101" fill="#E21A1A"/>
<path d="M43.3346 18.6587H51.1146L41.7786 29.9706H34.0039L43.3346 18.6587Z" fill="#E21A1A"/>
<path d="M13.0009 20.6587C12.9658 20.3847 12.9942 20.1071 13.0845 19.8437C13.1747 19.5803 13.3247 19.3371 13.5248 19.1298C13.7539 18.9477 14.0223 18.8113 14.3129 18.7293C14.6034 18.6473 14.9096 18.6214 15.2118 18.6535H28.2308C29.9178 18.6535 31.1489 18.6535 32.1863 19.1298C33.2236 19.6061 33.999 20.5587 34.8058 21.5112L35.5812 22.4638C36.1365 23.1306 36.5556 23.6402 36.5556 24.3452C36.5556 25.0501 36.1051 25.6026 35.5812 26.2503L32.4744 30.0225H24.6683L29.7239 23.8927C30.1116 23.4164 30.5674 22.8353 30.2478 22.1876C29.9282 21.5398 29.0795 21.5398 28.4351 21.5398H22.3369V35.6285H16.1129V21.4874H13.0009V20.6587Z" fill="#E21A1A"/>
<path d="M127.96 30C126.957 30 126.211 29.7643 125.72 29.2929C125.24 28.8109 125 28.0777 125 27.0929V21.9072C125 20.9225 125.24 20.1944 125.72 19.7229C126.211 19.241 126.957 19.0001 127.96 19.0001H136.52C137.523 19.0001 138.264 19.241 138.744 19.7229C139.235 20.1944 139.48 20.9225 139.48 21.9072V23.0858C139.48 23.222 139.448 23.3215 139.384 23.3843C139.331 23.4472 139.229 23.4786 139.08 23.4786H136.12C135.853 23.4786 135.973 23.4786 135.72 23.4786V22.5515C135.72 22.3001 135.72 22.085 135.72 21.7501C135.5 21.7501 135.112 21.7501 134.824 21.7501H129.496C129.155 21.7501 129.133 21.7501 128.52 21.7501C128.52 21.9771 128.52 22.3734 128.52 22.7086V26.2915C128.52 26.6267 128.52 26.8571 128.52 27.25C128.914 27.25 129.155 27.25 129.496 27.25H134.824C135.112 27.25 135.406 27.25 135.72 27.25C135.72 26.9031 135.72 26.7 135.72 26.4486V25.5215C135.72 25.5215 136.139 25.5215 136.406 25.5215H139.08C139.229 25.5215 139.331 25.5529 139.384 25.6158C139.448 25.6681 139.48 25.7677 139.48 25.9143V27.0929C139.48 28.0777 139.235 28.8109 138.744 29.2929C138.264 29.7643 137.523 30 136.52 30H127.96ZM167.652 19.0001C168.495 19.0001 169.119 19.1991 169.524 19.5972C169.929 19.9953 170.132 20.6082 170.132 21.4358V24.7358C170.132 25.5634 169.929 26.1763 169.524 26.5743C169.119 26.9724 168.495 27.1715 167.652 27.1715H160.452V29.6071C160.452 29.7434 160.42 29.8429 160.356 29.9057C160.303 29.9686 160.201 30 160.052 30H157.332C157.193 30 157.092 29.9686 157.028 29.9057C156.964 29.8429 156.932 29.7434 156.932 29.6071V19.393C156.932 19.2463 156.964 19.1468 157.028 19.0944C157.092 19.0315 157.193 19.0001 157.332 19.0001H167.652ZM166.612 22.3001C166.612 22.0486 166.553 21.8706 166.436 21.7658C166.329 21.6506 166.148 21.5929 165.892 21.5929H160.452V24.5786H165.892C166.148 24.5786 166.329 24.5263 166.436 24.4215C166.553 24.3063 166.612 24.1229 166.612 23.8715V22.3001ZM184.533 23.7143C185.237 23.7143 185.771 23.8924 186.133 24.2486C186.507 24.5943 186.693 25.0972 186.693 25.7572V27.5643C186.693 28.392 186.491 29.0048 186.085 29.4029C185.68 29.8009 185.056 30 184.213 30H172.773C172.635 30 172.373 30 172.373 30C172.373 29.912 172.373 29.7434 172.373 29.6071V19.393C172.373 19.2463 172.373 19.1084 172.373 19C172.452 19 172.635 19.0001 172.773 19.0001H182.853C184.453 19.0001 185.253 19.7334 185.253 21.2001V22.2215C185.253 22.871 185.013 23.3163 184.533 23.5572V23.7143ZM175.893 21.5144V23.4001H181.173C181.429 23.4001 181.611 23.3477 181.717 23.2429C181.835 23.1277 181.893 22.9443 181.893 22.6929V22.2215C181.893 21.9701 181.835 21.792 181.717 21.6872C181.611 21.572 181.429 21.5144 181.173 21.5144H175.893ZM183.173 26.15C183.173 25.8986 183.115 25.7205 182.997 25.6158C182.891 25.5005 182.709 25.4429 182.453 25.4429H175.893V27.4857H182.453C182.709 27.4857 182.891 27.4334 182.997 27.3286C183.115 27.2134 183.173 27.03 183.173 26.7786V26.15Z" fill="black"/>
<path d="M207.96 29.9999C206.957 29.9999 206.211 29.7642 205.72 29.2928C205.24 28.8108 205 28.0776 205 27.0928V21.9071C205 20.9224 205.24 20.1943 205.72 19.7228C206.211 19.2409 206.957 19 207.96 19H216.52C217.523 19 218.264 19.2409 218.744 19.7228C219.235 20.1943 219.48 20.9224 219.48 21.9071V23.0857C219.48 23.2219 219.448 23.3214 219.384 23.3842C219.331 23.4471 219.229 23.4785 219.08 23.4785H216.12C215.853 23.4785 215.973 23.4785 215.72 23.4785V22.5514C215.72 22.3 215.72 22.0849 215.72 21.75C215.5 21.75 215.112 21.75 214.824 21.75H209.496C209.155 21.75 209.133 21.75 208.52 21.75C208.52 21.977 208.52 22.3733 208.52 22.7085V26.2914C208.52 26.6266 208.52 26.857 208.52 27.2499C208.914 27.2499 209.155 27.2499 209.496 27.2499H214.824C215.112 27.2499 215.406 27.2499 215.72 27.2499C215.72 26.903 215.72 26.6999 215.72 26.4485V25.5214C215.72 25.5214 216.139 25.5214 216.406 25.5214H219.08C219.229 25.5214 219.331 25.5528 219.384 25.6157C219.448 25.668 219.48 25.7676 219.48 25.9142V27.0928C219.48 28.0776 219.235 28.8108 218.744 29.2928C218.264 29.7642 217.523 29.9999 216.52 29.9999H207.96Z" fill="black"/>
<path d="M91.2563 19H80.738C79.7813 19 79 19.7173 79 20.6073V21.465H83.9931V30H88.0069V21.4599H93V20.6073C92.9943 19.7173 92.2187 19 91.2563 19Z" fill="black"/>
<path d="M105.487 19H96.5135C95.6754 19 95 19.7177 95 20.6081V28.392C95 29.2824 95.6754 30 96.5135 30H105.487C106.325 30 107 29.2824 107 28.392V27.5134H98.4887V25.6157H103.268V23.1538H98.4887V21.4634H107V20.6081C107 19.7177 106.325 19 105.487 19Z" fill="black"/>
<path d="M152.486 19H143.514C142.675 19 142 19.7177 142 20.6081V28.392C142 29.2824 142.675 30 143.514 30H152.486C153.325 30 154 29.2824 154 28.392V27.5134H145.489V25.6157H150.268V23.1538H145.489V21.4634H154V20.6081C154 19.7177 153.325 19 152.486 19Z" fill="black"/>
<path d="M119.044 19L116.276 22.0277L113.73 19L109 19.0052L113.817 24.72L109 30H112.956L115.718 26.9724L118.27 30H123L118.178 24.28L123 19H119.044Z" fill="black"/>
<path d="M192.94 25.8387V20.6081C192.94 19.7177 192.192 19 191.265 19H189V30H192.513L199.07 23.1343V28.392C199.07 29.2824 199.818 30 200.746 30H203V19H199.504L192.94 25.8387Z" fill="black"/>
</g>
<defs>
<clipPath id="clip0_702_226">
<rect width="208" height="24" fill="white" transform="translate(13 13)"/>
</clipPath>
</defs>
</svg>
