<svg width="208" height="24" viewBox="0 0 208 24" fill="none" xmlns="http://www.w3.org/2000/svg">
<g clip-path="url(#clip0_346_6560)">
<path d="M39.6723 2.00284V2.82683H47.4471C48.0985 2.76023 48.7524 2.93155 49.265 3.30312C49.4672 3.533 49.6176 3.79689 49.7075 4.07967C49.7974 4.36245 49.825 4.65857 49.7889 4.95108V12.0193C49.825 12.3118 49.7974 12.6079 49.7075 12.8907C49.6176 13.1735 49.4672 13.4374 49.265 13.6672C48.7524 14.0388 48.0985 14.2101 47.4471 14.1435H43.6907C43.041 14.1435 42.1975 14.1435 41.8727 13.4958C41.5479 12.848 42.0037 12.2574 42.3966 11.7859L47.4523 5.66076H39.6723L36.5603 9.42822C36.0364 10.057 35.5859 10.6047 35.5859 11.3096C35.5859 12.0145 36.005 12.5289 36.5603 13.2148L37.3357 14.1673C38.1163 15.1199 38.9074 16.0725 39.929 16.525C40.9507 16.9775 42.1975 17.0013 43.8845 17.0013H47.2532C49.1969 17.0013 52.115 17.0013 54.064 15.2342C56.0129 13.4672 56.0076 10.8714 56.0076 9.93308V7.07058C56.0076 6.118 56.0076 3.53174 54.064 1.7647C52.1203 -0.00234163 49.1969 -0.00234158 47.2532 -0.00234158H41.8727C41.5714 -0.034305 41.266 -0.00842956 40.9763 0.0736125C40.6866 0.155655 40.4191 0.292038 40.191 0.47395C39.9908 0.682183 39.8407 0.926222 39.7505 1.19036C39.6602 1.4545 39.6318 1.73289 39.6671 2.00761" fill="#E21A1A"/>
<path d="M30.3346 5.65625H38.1146L28.7786 16.9682H21.0039L30.3346 5.65625Z" fill="#E21A1A"/>
<path d="M-0.00101372 7.65916C-0.0361723 7.38518 -0.00771028 7.10754 0.0825331 6.84419C0.172777 6.58083 0.322793 6.33762 0.522889 6.13027C0.751939 5.94823 1.02038 5.81181 1.31092 5.72978C1.60146 5.64775 1.90768 5.62192 2.20986 5.65397H15.2288C16.9158 5.65397 18.1469 5.65397 19.1843 6.13027C20.2216 6.60656 20.997 7.55914 21.8038 8.51172L22.5792 9.4643C23.1345 10.1311 23.5536 10.6407 23.5536 11.3457C23.5536 12.0506 23.1031 12.6031 22.5792 13.2508L19.4724 17.023H11.6663L16.7219 10.8932C17.1096 10.4169 17.5654 9.83581 17.2458 9.18805C16.9262 8.5403 16.0775 8.5403 15.4331 8.5403H9.33494V22.629H3.11097V8.4879H-0.00101372V7.65916Z" fill="#E21A1A"/>
<path d="M114.96 17C113.957 17 113.211 16.7643 112.72 16.2929C112.24 15.8109 112 15.0777 112 14.0929V8.90721C112 7.92246 112.24 7.19437 112.72 6.72294C113.211 6.24104 113.957 6.00009 114.96 6.00009H123.52C124.523 6.00009 125.264 6.24104 125.744 6.72294C126.235 7.19437 126.48 7.92246 126.48 8.90721V10.0858C126.48 10.222 126.448 10.3215 126.384 10.3843C126.331 10.4472 126.229 10.4786 126.08 10.4786H123.12C122.853 10.4786 122.973 10.4786 122.72 10.4786V9.55149C122.72 9.30007 122.72 9.085 122.72 8.75007C122.5 8.75007 122.112 8.75007 121.824 8.75007H116.496C116.155 8.75007 116.133 8.75007 115.52 8.75007C115.52 8.97709 115.52 9.3734 115.52 9.70863V13.2915C115.52 13.6267 115.52 13.8571 115.52 14.25C115.914 14.25 116.155 14.25 116.496 14.25H121.824C122.112 14.25 122.406 14.25 122.72 14.25C122.72 13.9031 122.72 13.7 122.72 13.4486V12.5215C122.72 12.5215 123.139 12.5215 123.406 12.5215H126.08C126.229 12.5215 126.331 12.5529 126.384 12.6158C126.448 12.6681 126.48 12.7677 126.48 12.9143V14.0929C126.48 15.0777 126.235 15.8109 125.744 16.2929C125.264 16.7643 124.523 17 123.52 17H114.96ZM154.652 6.00009C155.495 6.00009 156.119 6.19914 156.524 6.59723C156.929 6.99532 157.132 7.60817 157.132 8.43579V11.7358C157.132 12.5634 156.929 13.1763 156.524 13.5743C156.119 13.9724 155.495 14.1715 154.652 14.1715H147.452V16.6071C147.452 16.7434 147.42 16.8429 147.356 16.9057C147.303 16.9686 147.201 17 147.052 17H144.332C144.193 17 144.092 16.9686 144.028 16.9057C143.964 16.8429 143.932 16.7434 143.932 16.6071V6.39295C143.932 6.24629 143.964 6.14676 144.028 6.09438C144.092 6.03152 144.193 6.00009 144.332 6.00009H154.652ZM153.612 9.30007C153.612 9.04864 153.553 8.87055 153.436 8.76578C153.329 8.65055 153.148 8.59293 152.892 8.59293H147.452V11.5786H152.892C153.148 11.5786 153.329 11.5263 153.436 11.4215C153.553 11.3063 153.612 11.1229 153.612 10.8715V9.30007ZM171.533 10.7143C172.237 10.7143 172.771 10.8924 173.133 11.2486C173.507 11.5943 173.693 12.0972 173.693 12.7572V14.5643C173.693 15.392 173.491 16.0048 173.085 16.4029C172.68 16.8009 172.056 17 171.213 17H159.773C159.635 17 159.373 17 159.373 17C159.373 16.912 159.373 16.7434 159.373 16.6071V6.39295C159.373 6.24629 159.373 6.10838 159.373 6C159.452 6.00002 159.635 6.00009 159.773 6.00009H169.853C171.453 6.00009 172.253 6.73342 172.253 8.20007V9.22149C172.253 9.87101 172.013 10.3163 171.533 10.5572V10.7143ZM162.893 8.51436V10.4001H168.173C168.429 10.4001 168.611 10.3477 168.717 10.2429C168.835 10.1277 168.893 9.94435 168.893 9.69292V9.22149C168.893 8.97007 168.835 8.79198 168.717 8.68721C168.611 8.57198 168.429 8.51436 168.173 8.51436H162.893ZM170.173 13.15C170.173 12.8986 170.115 12.7205 169.997 12.6158C169.891 12.5005 169.709 12.4429 169.453 12.4429H162.893V14.4857H169.453C169.709 14.4857 169.891 14.4334 169.997 14.3286C170.115 14.2134 170.173 14.03 170.173 13.7786V13.15Z" fill="white"/>
<path d="M194.96 16.9999C193.957 16.9999 193.211 16.7642 192.72 16.2928C192.24 15.8108 192 15.0776 192 14.0928V8.90712C192 7.92236 192.24 7.19428 192.72 6.72285C193.211 6.24095 193.957 6 194.96 6H203.52C204.523 6 205.264 6.24095 205.744 6.72285C206.235 7.19428 206.48 7.92236 206.48 8.90712V10.0857C206.48 10.2219 206.448 10.3214 206.384 10.3842C206.331 10.4471 206.229 10.4785 206.08 10.4785H203.12C202.853 10.4785 202.973 10.4785 202.72 10.4785V9.5514C202.72 9.29997 202.72 9.08491 202.72 8.74998C202.5 8.74998 202.112 8.74998 201.824 8.74998H196.496C196.155 8.74998 196.133 8.74998 195.52 8.74998C195.52 8.977 195.52 9.37331 195.52 9.70854V13.2914C195.52 13.6266 195.52 13.857 195.52 14.2499C195.914 14.2499 196.155 14.2499 196.496 14.2499H201.824C202.112 14.2499 202.406 14.2499 202.72 14.2499C202.72 13.903 202.72 13.6999 202.72 13.4485V12.5214C202.72 12.5214 203.139 12.5214 203.406 12.5214H206.08C206.229 12.5214 206.331 12.5528 206.384 12.6157C206.448 12.668 206.48 12.7676 206.48 12.9142V14.0928C206.48 15.0776 206.235 15.8108 205.744 16.2928C205.264 16.7642 204.523 16.9999 203.52 16.9999H194.96Z" fill="white"/>
<path d="M78.2563 6H67.738C66.7813 6 66 6.71727 66 7.60733V8.46505H70.9931V17H75.0069V8.45986H80V7.60733C79.9943 6.71727 79.2187 6 78.2563 6Z" fill="white"/>
<path d="M92.4865 6H83.5135C82.6754 6 82 6.71766 82 7.60809V15.392C82 16.2824 82.6754 17 83.5135 17H92.4865C93.3246 17 94 16.2824 94 15.392V14.5134H85.4887V12.6157H90.2679V10.1538H85.4887V8.46336H94V7.60809C94 6.71766 93.3246 6 92.4865 6Z" fill="white"/>
<path d="M139.486 6H130.514C129.675 6 129 6.71766 129 7.60809V15.392C129 16.2824 129.675 17 130.514 17H139.486C140.325 17 141 16.2824 141 15.392V14.5134H132.489V12.6157H137.268V10.1538H132.489V8.46336H141V7.60809C141 6.71766 140.325 6 139.486 6Z" fill="white"/>
<path d="M106.044 6L103.276 9.02766L100.73 6L96 6.00524L100.817 11.72L96 17H99.956L102.718 13.9724L105.27 17H110L105.178 11.28L110 6H106.044Z" fill="white"/>
<path d="M179.94 12.8387V7.60809C179.94 6.71766 179.192 6 178.265 6H176V17H179.513L186.07 10.1343V15.392C186.07 16.2824 186.818 17 187.746 17H190V6H186.504L179.94 12.8387Z" fill="white"/>
</g>
<defs>
<clipPath id="clip0_346_6560">
<rect width="208" height="24" fill="white"/>
</clipPath>
</defs>
</svg>
