<svg width="65" height="49" viewBox="0 0 65 49" fill="none" xmlns="http://www.w3.org/2000/svg">
<path d="M65 0H0V39.9981H65V0Z" fill="#E21A1A"/>
<path fill-rule="evenodd" clip-rule="evenodd" d="M42.017 11.7668V12.494H48.2722C48.6866 12.494 49.3144 12.494 49.7288 12.9123C50.1432 13.3305 50.1448 13.9532 50.1448 14.3714V20.6138C50.1448 21.0258 50.1448 21.6563 49.7288 22.0699C49.3129 22.4834 48.6866 22.4881 48.2722 22.4881H45.2506C44.7294 22.4881 44.0498 22.4881 43.7908 21.9138C43.5318 21.3395 43.8944 20.8214 44.2083 20.4031L48.2722 14.9926H42.017L39.5197 18.3213C39.1037 18.8816 38.7349 19.3638 38.7349 19.988C38.7349 20.6123 39.0692 21.0648 39.5197 21.6563L40.1476 22.4881C40.7754 23.3183 41.4033 24.1548 42.2274 24.5715C43.0515 24.9882 44.0498 24.9866 45.406 24.9866H48.1152C49.6849 24.9866 52.0237 24.9866 53.5839 23.426C55.1442 21.8654 55.1536 19.5729 55.1536 18.7442V16.2473C55.1536 15.4155 55.1536 13.1261 53.5839 11.5655C52.0143 10.0049 49.677 10.0049 48.1152 10.0049H43.7939C43.3779 10.0049 42.8521 10.0049 42.4424 10.4184C42.0327 10.832 42.017 11.3486 42.017 11.7668Z" fill="white"/>
<path fill-rule="evenodd" clip-rule="evenodd" d="M34.5183 14.999H40.7688L33.2689 24.9978H27.02L34.5183 14.999Z" fill="white"/>
<path fill-rule="evenodd" clip-rule="evenodd" d="M10.145 16.764C10.145 16.3504 10.145 15.8276 10.561 15.4125C10.9769 14.9974 11.5028 15.0005 11.9156 15.0005H22.3853C23.7368 15.0005 24.7288 15.0005 25.5623 15.4125C26.3958 15.8245 27.0205 16.661 27.6468 17.4943L28.2747 18.3292C28.7174 18.9223 29.0595 19.3717 29.0595 19.996C29.0595 20.6202 28.6969 21.1055 28.2747 21.6642L25.7742 24.9977H19.5191L23.583 19.5793C23.8969 19.1657 24.2595 18.6429 24.0005 18.0671C23.7415 17.4912 23.0587 17.4943 22.5376 17.4943H17.6465V29.9963H12.6455V17.4943H10.145V16.764Z" fill="white"/>
<path d="M22.6538 49C22.1897 49 21.8445 48.8929 21.6173 48.6786C21.3952 48.4595 21.2842 48.1262 21.2842 47.6786V45.3215C21.2842 44.8738 21.3952 44.5429 21.6173 44.3286C21.8445 44.1096 22.1897 44 22.6538 44H26.6145C27.0786 44 27.4214 44.1096 27.6435 44.3286C27.8707 44.5429 27.9841 44.8738 27.9841 45.3215V45.8572C27.9841 45.9191 27.9693 45.9643 27.9396 45.9929C27.9151 46.0215 27.8679 46.0357 27.799 46.0357H26.4294C26.3059 46.0357 26.3612 46.0357 26.2443 46.0357V45.6143C26.2443 45.5 26.2443 45.4023 26.2443 45.25C26.1425 45.25 25.963 45.25 25.8297 45.25H23.3645C23.2067 45.25 23.1964 45.25 22.9129 45.25C22.9129 45.3532 22.9129 45.5334 22.9129 45.6857V47.3143C22.9129 47.4667 22.9129 47.5714 22.9129 47.75C23.0952 47.75 23.2067 47.75 23.3645 47.75H25.8297C25.963 47.75 26.0991 47.75 26.2443 47.75C26.2443 47.5923 26.2443 47.5 26.2443 47.3857V46.9643C26.2443 46.9643 26.4383 46.9643 26.5618 46.9643H27.799C27.8679 46.9643 27.9151 46.9786 27.9396 47.0072C27.9693 47.031 27.9841 47.0762 27.9841 47.1429V47.6786C27.9841 48.1262 27.8707 48.4595 27.6435 48.6786C27.4214 48.8929 27.0786 49 26.6145 49H22.6538ZM41.0192 44C41.4093 44 41.698 44.0905 41.8854 44.2715C42.0728 44.4524 42.1667 44.731 42.1667 45.1072V46.6072C42.1667 46.9834 42.0728 47.2619 41.8854 47.4429C41.698 47.6238 41.4093 47.7143 41.0192 47.7143H37.6878V48.8214C37.6878 48.8833 37.673 48.9286 37.6434 48.9571C37.6189 48.9857 37.5717 49 37.5027 49H36.2442C36.1799 49 36.1331 48.9857 36.1035 48.9571C36.0739 48.9286 36.0591 48.8833 36.0591 48.8214V44.1786C36.0591 44.1119 36.0739 44.0667 36.1035 44.0429C36.1331 44.0143 36.1799 44 36.2442 44H41.0192ZM40.538 45.5C40.538 45.3857 40.5107 45.3048 40.4566 45.2572C40.4071 45.2048 40.3233 45.1786 40.2049 45.1786H37.6878V46.5357H40.2049C40.3233 46.5357 40.4071 46.5119 40.4566 46.4643C40.5107 46.4119 40.538 46.3286 40.538 46.2143V45.5ZM48.8301 46.1429C49.1558 46.1429 49.4029 46.2238 49.5704 46.3857C49.7434 46.5429 49.8295 46.7714 49.8295 47.0714V47.8929C49.8295 48.2691 49.736 48.5476 49.5482 48.7286C49.3608 48.9095 49.072 49 48.682 49H43.3887C43.3249 49 43.2036 49 43.2036 49C43.2036 48.96 43.2036 48.8833 43.2036 48.8214V44.1786C43.2036 44.1119 43.2036 44.0493 43.2036 44C43.2403 44 43.3249 44 43.3887 44H48.0527C48.793 44 49.1632 44.3334 49.1632 45V45.4643C49.1632 45.7595 49.0521 45.9619 48.8301 46.0715V46.1429ZM44.8323 45.1429V46H47.2754C47.3938 46 47.478 45.9762 47.5271 45.9286C47.5817 45.8762 47.6085 45.7929 47.6085 45.6786V45.4643C47.6085 45.35 47.5817 45.2691 47.5271 45.2215C47.478 45.1691 47.3938 45.1429 47.2754 45.1429H44.8323ZM48.2008 47.25C48.2008 47.1357 48.1739 47.0548 48.1193 47.0072C48.0703 46.9548 47.9861 46.9286 47.8676 46.9286H44.8323V47.8572H47.8676C47.9861 47.8572 48.0703 47.8334 48.1193 47.7857C48.1739 47.7334 48.2008 47.65 48.2008 47.5357V47.25Z" fill="black"/>
<path d="M59.6699 49C59.2058 49 58.8606 48.8928 58.6334 48.6785C58.4113 48.4595 58.3003 48.1262 58.3003 47.6785V45.3214C58.3003 44.8738 58.4113 44.5429 58.6334 44.3286C58.8606 44.1095 59.2058 44 59.6699 44H63.6306C64.0947 44 64.4375 44.1095 64.6596 44.3286C64.8868 44.5429 65.0002 44.8738 65.0002 45.3214V45.8571C65.0002 45.919 64.9854 45.9643 64.9558 45.9928C64.9312 46.0214 64.884 46.0357 64.8151 46.0357H63.4455C63.322 46.0357 63.3773 46.0357 63.2604 46.0357V45.6143C63.2604 45.5 63.2604 45.4022 63.2604 45.25C63.1586 45.25 62.9791 45.25 62.8458 45.25H60.3806C60.2228 45.25 60.2125 45.25 59.929 45.25C59.929 45.3532 59.929 45.5333 59.929 45.6857V47.3143C59.929 47.4666 59.929 47.5714 59.929 47.75C60.1113 47.75 60.2228 47.75 60.3806 47.75H62.8458C62.9791 47.75 63.1153 47.75 63.2604 47.75C63.2604 47.5923 63.2604 47.5 63.2604 47.3857V46.9643C63.2604 46.9643 63.4544 46.9643 63.578 46.9643H64.8151C64.884 46.9643 64.9312 46.9785 64.9558 47.0071C64.9854 47.0309 65.0002 47.0762 65.0002 47.1428V47.6785C65.0002 48.1262 64.8868 48.4595 64.6596 48.6785C64.4375 48.8928 64.0947 49 63.6306 49H59.6699Z" fill="black"/>
<path d="M5.671 44H0.80415C0.361491 44 0 44.326 0 44.7306V45.1205H2.31031V49H4.16749V45.1181H6.47779V44.7306C6.47515 44.326 6.1163 44 5.671 44Z" fill="black"/>
<path d="M12.2554 44H8.10364C7.71584 44 7.40332 44.3262 7.40332 44.731V48.2691C7.40332 48.6738 7.71584 49 8.10364 49H12.2554C12.6432 49 12.9557 48.6738 12.9557 48.2691V47.8697H9.01753V47.0071H11.2289V45.8881H9.01753V45.1197H12.9557V44.731C12.9557 44.3262 12.6432 44 12.2554 44Z" fill="black"/>
<path d="M34.002 44H29.8502C29.4624 44 29.1499 44.3262 29.1499 44.731V48.2691C29.1499 48.6738 29.4624 49 29.8502 49H34.002C34.3898 49 34.7023 48.6738 34.7023 48.2691V47.8697H30.7641V47.0071H32.9754V45.8881H30.7641V45.1197H34.7023V44.731C34.7023 44.3262 34.3898 44 34.002 44Z" fill="black"/>
<path d="M18.528 44L17.2477 45.3762L16.0693 44L13.8809 44.0024L16.1096 46.6L13.8809 49H15.7113L16.9893 47.6238L18.17 49H20.3587L18.1274 46.4L20.3587 44H18.528Z" fill="black"/>
<path d="M52.72 47.1085V44.731C52.72 44.3262 52.3741 44 51.9451 44H50.897V49H52.5225L55.5564 45.8792V48.2691C55.5564 48.6738 55.9023 49 56.3318 49H57.3748V44H55.7572L52.72 47.1085Z" fill="black"/>
</svg>
